<?xml version="1.0" encoding="utf-8"?>
<svg version="1.1" xmlns:xlink="http://www.w3.org/1999/xlink" width="9px" height="9px" xmlns="http://www.w3.org/2000/svg">
  <g transform="matrix(1 0 0 1 -228 -581 )">
    <path d="M 232.5 581  C 235.02 581  237 582.98  237 585.5  C 237 588.02  235.02 590  232.5 590  C 229.98 590  228 588.02  228 585.5  C 228 582.98  229.98 581  232.5 581  Z " fill-rule="nonzero" fill="#ffffff" stroke="none" />
    <path d="M 232.5 581.5  C 234.74 581.5  236.5 583.26  236.5 585.5  C 236.5 587.74  234.74 589.5  232.5 589.5  C 230.26 589.5  228.5 587.74  228.5 585.5  C 228.5 583.26  230.26 581.5  232.5 581.5  Z " stroke-width="1" stroke="#1d8db0" fill="none" />
  </g>
</svg>