<?xml version="1.0" encoding="utf-8"?>
<svg version="1.1" xmlns:xlink="http://www.w3.org/1999/xlink" width="24px" height="24px" viewBox="22 322  24 24" xmlns="http://www.w3.org/2000/svg">
  <path d="M 22.5 326  A 3.5 3.5 0 0 1 26 322.5 L 42 322.5  A 3.5 3.5 0 0 1 45.5 326 L 45.5 342  A 3.5 3.5 0 0 1 42 345.5 L 26 345.5  A 3.5 3.5 0 0 1 22.5 342 L 22.5 326  Z " fill-rule="nonzero" fill="#ffffff" stroke="none" />
  <path d="M 22.5 326  A 3.5 3.5 0 0 1 26 322.5 L 42 322.5  A 3.5 3.5 0 0 1 45.5 326 L 45.5 342  A 3.5 3.5 0 0 1 42 345.5 L 26 345.5  A 3.5 3.5 0 0 1 22.5 342 L 22.5 326  Z " stroke-width="1" stroke="#d7d6d6" fill="none" />
  <path d="M 27.1428571428571 334  L 32.2857142857143 339.142857142857  L 40.8571428571429 327.142857142857  " stroke-width="5.14285714285714" stroke="#d7d6d6" fill="none" />
</svg>