<?xml version="1.0" encoding="utf-8"?>
<svg version="1.1" xmlns:xlink="http://www.w3.org/1999/xlink" width="24px" height="24px" viewBox="22 311  24 24" xmlns="http://www.w3.org/2000/svg">
  <path d="M 22.5 315  A 3.5 3.5 0 0 1 26 311.5 L 42 311.5  A 3.5 3.5 0 0 1 45.5 315 L 45.5 331  A 3.5 3.5 0 0 1 42 334.5 L 26 334.5  A 3.5 3.5 0 0 1 22.5 331 L 22.5 315  Z " fill-rule="nonzero" fill="#ffffff" stroke="none" />
  <path d="M 22.5 315  A 3.5 3.5 0 0 1 26 311.5 L 42 311.5  A 3.5 3.5 0 0 1 45.5 315 L 45.5 331  A 3.5 3.5 0 0 1 42 334.5 L 26 334.5  A 3.5 3.5 0 0 1 22.5 331 L 22.5 315  Z " stroke-width="1" stroke="#d7d6d6" fill="none" />
</svg>