<?xml version="1.0" encoding="utf-8"?>
<svg version="1.1" xmlns:xlink="http://www.w3.org/1999/xlink" width="13px" height="13px" xmlns="http://www.w3.org/2000/svg">
  <defs>
    <mask fill="white" id="clip3729">
      <path d="M 13 13  L 12.9935 1.3  C 12.9935 0.58175  12.41825 0  11.7 0  L 1.3 0  C 0.58175 0  0 0.58175  0 1.3  L 0 9.1  C 0 9.81825  0.58175 10.4  1.3 10.4  L 10.4 10.4  L 13 13  Z " fill-rule="evenodd" />
    </mask>
  </defs>
  <g transform="matrix(1 0 0 1 -83 -1076 )">
    <path d="M 13 13  L 12.9935 1.3  C 12.9935 0.58175  12.41825 0  11.7 0  L 1.3 0  C 0.58175 0  0 0.58175  0 1.3  L 0 9.1  C 0 9.81825  0.58175 10.4  1.3 10.4  L 10.4 10.4  L 13 13  Z " fill-rule="nonzero" fill="#b2cfd5" stroke="none" fill-opacity="0" transform="matrix(1 0 0 1 83 1076 )" />
    <path d="M 13 13  L 12.9935 1.3  C 12.9935 0.58175  12.41825 0  11.7 0  L 1.3 0  C 0.58175 0  0 0.58175  0 1.3  L 0 9.1  C 0 9.81825  0.58175 10.4  1.3 10.4  L 10.4 10.4  L 13 13  Z " stroke-width="2" stroke="#b2cfd5" fill="none" transform="matrix(1 0 0 1 83 1076 )" mask="url(#clip3729)" />
  </g>
</svg>