<?xml version="1.0" encoding="utf-8"?>
<svg version="1.1" xmlns:xlink="http://www.w3.org/1999/xlink" width="16px" height="13px" xmlns="http://www.w3.org/2000/svg">
  <defs>
    <mask fill="white" id="clip3728">
      <path d="M 0 13  C 0.888888888888889 8.66666666666667  3.55555555555556 4.33333333333333  9.77777777777778 3.46666666666667  L 9.77777777777778 0  L 16 6.06666666666667  L 9.77777777777778 12.1333333333333  L 9.77777777777778 8.58  C 5.33333333333333 8.58  2.22222222222222 9.96666666666667  0 13  Z " fill-rule="evenodd" />
    </mask>
  </defs>
  <g transform="matrix(1 0 0 1 -111 -1076 )">
    <path d="M 0 13  C 0.888888888888889 8.66666666666667  3.55555555555556 4.33333333333333  9.77777777777778 3.46666666666667  L 9.77777777777778 0  L 16 6.06666666666667  L 9.77777777777778 12.1333333333333  L 9.77777777777778 8.58  C 5.33333333333333 8.58  2.22222222222222 9.96666666666667  0 13  Z " fill-rule="nonzero" fill="#b2cfd5" stroke="none" fill-opacity="0" transform="matrix(1 0 0 1 111 1076 )" />
    <path d="M 0 13  C 0.888888888888889 8.66666666666667  3.55555555555556 4.33333333333333  9.77777777777778 3.46666666666667  L 9.77777777777778 0  L 16 6.06666666666667  L 9.77777777777778 12.1333333333333  L 9.77777777777778 8.58  C 5.33333333333333 8.58  2.22222222222222 9.96666666666667  0 13  Z " stroke-width="2" stroke="#b2cfd5" fill="none" transform="matrix(1 0 0 1 111 1076 )" mask="url(#clip3728)" />
  </g>
</svg>