<?xml version="1.0" encoding="utf-8"?>
<svg version="1.1" xmlns:xlink="http://www.w3.org/1999/xlink" width="14px" height="13px" xmlns="http://www.w3.org/2000/svg">
  <defs>
    <mask fill="white" id="clip3727">
      <path d="M 0 5.2  L 0 13  L 2.54545454545455 13  L 2.54545454545455 5.2  L 0 5.2  Z M 13.9936363636364 5.89875  L 14 5.85  C 14 5.13175  13.4304545454545 4.55  12.7272727272727 4.55  L 8.70863636363636 4.55  L 9.31636363636364 1.5795  C 9.32909090909091 1.5145  9.33863636363636 1.44625  9.33863636363636 1.37475  C 9.33863636363636 1.105  9.23045454545455 0.86125  9.05863636363636 0.68575  L 8.38090909090909 0  L 4.19045454545455 4.28025  C 3.96136363636364 4.5175  3.81818181818182 4.8425  3.81818181818182 5.2  L 3.81818181818182 11.7  C 3.81818181818182 12.41825  4.38772727272727 13  5.09090909090909 13  L 10.8181818181818 13  C 11.3463636363636 13  11.7981818181818 12.67175  11.9890909090909 12.207  L 13.9077272727273 7.6245  C 13.965 7.475  14 7.31575  14 7.15  L 14 5.90525  L 13.9936363636364 5.89875  Z " fill-rule="evenodd" />
    </mask>
  </defs>
  <g transform="matrix(1 0 0 1 -56 -1075 )">
    <path d="M 0 5.2  L 0 13  L 2.54545454545455 13  L 2.54545454545455 5.2  L 0 5.2  Z M 13.9936363636364 5.89875  L 14 5.85  C 14 5.13175  13.4304545454545 4.55  12.7272727272727 4.55  L 8.70863636363636 4.55  L 9.31636363636364 1.5795  C 9.32909090909091 1.5145  9.33863636363636 1.44625  9.33863636363636 1.37475  C 9.33863636363636 1.105  9.23045454545455 0.86125  9.05863636363636 0.68575  L 8.38090909090909 0  L 4.19045454545455 4.28025  C 3.96136363636364 4.5175  3.81818181818182 4.8425  3.81818181818182 5.2  L 3.81818181818182 11.7  C 3.81818181818182 12.41825  4.38772727272727 13  5.09090909090909 13  L 10.8181818181818 13  C 11.3463636363636 13  11.7981818181818 12.67175  11.9890909090909 12.207  L 13.9077272727273 7.6245  C 13.965 7.475  14 7.31575  14 7.15  L 14 5.90525  L 13.9936363636364 5.89875  Z " fill-rule="nonzero" fill="#b2cfd5" stroke="none" fill-opacity="0" transform="matrix(1 0 0 1 56 1075 )" />
    <path d="M 0 5.2  L 0 13  L 2.54545454545455 13  L 2.54545454545455 5.2  L 0 5.2  Z " stroke-width="2" stroke="#b2cfd5" fill="none" transform="matrix(1 0 0 1 56 1075 )" mask="url(#clip3727)" />
    <path d="M 13.9936363636364 5.89875  L 14 5.85  C 14 5.13175  13.4304545454545 4.55  12.7272727272727 4.55  L 8.70863636363636 4.55  L 9.31636363636364 1.5795  C 9.32909090909091 1.5145  9.33863636363636 1.44625  9.33863636363636 1.37475  C 9.33863636363636 1.105  9.23045454545455 0.86125  9.05863636363636 0.68575  L 8.38090909090909 0  L 4.19045454545455 4.28025  C 3.96136363636364 4.5175  3.81818181818182 4.8425  3.81818181818182 5.2  L 3.81818181818182 11.7  C 3.81818181818182 12.41825  4.38772727272727 13  5.09090909090909 13  L 10.8181818181818 13  C 11.3463636363636 13  11.7981818181818 12.67175  11.9890909090909 12.207  L 13.9077272727273 7.6245  C 13.965 7.475  14 7.31575  14 7.15  L 14 5.90525  L 13.9936363636364 5.89875  Z " stroke-width="2" stroke="#b2cfd5" fill="none" transform="matrix(1 0 0 1 56 1075 )" mask="url(#clip3727)" />
  </g>
</svg>