<?xml version="1.0" encoding="utf-8"?>
<svg version="1.1" xmlns:xlink="http://www.w3.org/1999/xlink" width="15px" height="14px" xmlns="http://www.w3.org/2000/svg">
  <defs>
    <mask fill="white" id="clip3702">
      <path d="M 0 5.6  L 0 14  L 2.72727272727273 14  L 2.72727272727273 5.6  L 0 5.6  Z M 14.9931818181818 6.3525  L 15 6.3  C 15 5.5265  14.3897727272727 4.9  13.6363636363636 4.9  L 9.33068181818182 4.9  L 9.98181818181818 1.701  C 9.99545454545455 1.631  10.0056818181818 1.5575  10.0056818181818 1.4805  C 10.0056818181818 1.19  9.88977272727273 0.9275  9.70568181818182 0.7385  L 8.97954545454546 0  L 4.48977272727273 4.6095  C 4.24431818181818 4.865  4.09090909090909 5.215  4.09090909090909 5.6  L 4.09090909090909 12.6  C 4.09090909090909 13.3735  4.70113636363636 14  5.45454545454546 14  L 11.5909090909091 14  C 12.1568181818182 14  12.6409090909091 13.6465  12.8454545454545 13.146  L 14.9011363636364 8.211  C 14.9625 8.05  15 7.8785  15 7.7  L 15 6.3595  L 14.9931818181818 6.3525  Z " fill-rule="evenodd" />
    </mask>
  </defs>
  <g transform="matrix(1 0 0 1 -59 -1127 )">
    <path d="M 0 5.6  L 0 14  L 2.72727272727273 14  L 2.72727272727273 5.6  L 0 5.6  Z M 14.9931818181818 6.3525  L 15 6.3  C 15 5.5265  14.3897727272727 4.9  13.6363636363636 4.9  L 9.33068181818182 4.9  L 9.98181818181818 1.701  C 9.99545454545455 1.631  10.0056818181818 1.5575  10.0056818181818 1.4805  C 10.0056818181818 1.19  9.88977272727273 0.9275  9.70568181818182 0.7385  L 8.97954545454546 0  L 4.48977272727273 4.6095  C 4.24431818181818 4.865  4.09090909090909 5.215  4.09090909090909 5.6  L 4.09090909090909 12.6  C 4.09090909090909 13.3735  4.70113636363636 14  5.45454545454546 14  L 11.5909090909091 14  C 12.1568181818182 14  12.6409090909091 13.6465  12.8454545454545 13.146  L 14.9011363636364 8.211  C 14.9625 8.05  15 7.8785  15 7.7  L 15 6.3595  L 14.9931818181818 6.3525  Z " fill-rule="nonzero" fill="#b2cfd5" stroke="none" fill-opacity="0" transform="matrix(1 0 0 1 59 1127 )" />
    <path d="M 0 5.6  L 0 14  L 2.72727272727273 14  L 2.72727272727273 5.6  L 0 5.6  Z " stroke-width="2" stroke="#b2cfd5" fill="none" transform="matrix(1 0 0 1 59 1127 )" mask="url(#clip3702)" />
    <path d="M 14.9931818181818 6.3525  L 15 6.3  C 15 5.5265  14.3897727272727 4.9  13.6363636363636 4.9  L 9.33068181818182 4.9  L 9.98181818181818 1.701  C 9.99545454545455 1.631  10.0056818181818 1.5575  10.0056818181818 1.4805  C 10.0056818181818 1.19  9.88977272727273 0.9275  9.70568181818182 0.7385  L 8.97954545454546 0  L 4.48977272727273 4.6095  C 4.24431818181818 4.865  4.09090909090909 5.215  4.09090909090909 5.6  L 4.09090909090909 12.6  C 4.09090909090909 13.3735  4.70113636363636 14  5.45454545454546 14  L 11.5909090909091 14  C 12.1568181818182 14  12.6409090909091 13.6465  12.8454545454545 13.146  L 14.9011363636364 8.211  C 14.9625 8.05  15 7.8785  15 7.7  L 15 6.3595  L 14.9931818181818 6.3525  Z " stroke-width="2" stroke="#b2cfd5" fill="none" transform="matrix(1 0 0 1 59 1127 )" mask="url(#clip3702)" />
  </g>
</svg>