<?xml version="1.0" encoding="utf-8"?>
<svg version="1.1" xmlns:xlink="http://www.w3.org/1999/xlink" width="40px" height="42px" xmlns="http://www.w3.org/2000/svg">
  <g transform="matrix(1 0 0 1 -25 -497 )">
    <path d="M 45 497  C 56.2 497  65 506.24  65 518  C 65 529.76  56.2 539  45 539  C 33.8 539  25 529.76  25 518  C 25 506.24  33.8 497  45 497  Z " fill-rule="nonzero" fill="#ffffff" stroke="none" />
    <path d="M 45 497.5  C 55.92 497.5  64.5 506.52  64.5 518  C 64.5 529.48  55.92 538.5  45 538.5  C 34.08 538.5  25.5 529.48  25.5 518  C 25.5 506.52  34.08 497.5  45 497.5  Z " stroke-width="1" stroke="#797979" fill="none" />
  </g>
</svg>