<?xml version="1.0" encoding="utf-8"?>
<svg version="1.1" xmlns:xlink="http://www.w3.org/1999/xlink" width="25px" height="26px" xmlns="http://www.w3.org/2000/svg">
  <g transform="matrix(1 0 0 1 -88 -923 )">
    <path d="M 24.9467329545455 20.1463068181818  C 24.9822443181818 20.2324810606061  25 20.3617424242424  25 20.5340909090909  C 25 20.8664772727273  24.9408143939394 21.3004261363636  24.8224431818182 21.8359375  C 24.704071969697 22.3714488636364  24.5797821969697 22.7930871212121  24.4495738636364 23.1008522727273  C 24.2009943181818 23.7163825757576  23.4789299242424 24.3688446969697  22.2833806818182 25.0582386363636  C 21.1706912878788 25.6860795454545  20.0698390151515 26  18.9808238636364 26  C 18.6612215909091 26  18.3475378787879 25.9784564393939  18.0397727272727 25.9353693181818  C 17.7320075757576 25.8922821969697  17.3916903409091 25.8153409090909  17.0188210227273 25.7045454545455  C 16.6459517045455 25.59375  16.3677793560606 25.5044981060606  16.1843039772727 25.4367897727273  C 16.0008285984849 25.3690814393939  15.6723484848485 25.2428977272727  15.1988636363636 25.0582386363636  C 14.7253787878788 24.8735795454545  14.4353693181818 24.7627840909091  14.3288352272727 24.7258522727273  C 13.1687973484849 24.2949810606061  12.1330492424242 23.7840909090909  11.2215909090909 23.1931818181818  C 9.71827651515152 22.2206439393939  8.15577651515152 20.8910984848485  6.53409090909091 19.2045454545455  C 4.9124053030303 17.5179924242424  3.63399621212121 15.8929924242424  2.69886363636364 14.3295454545455  C 2.13068181818182 13.3816287878788  1.63944128787879 12.3044507575758  1.22514204545455 11.0980113636364  C 1.18963068181818 10.9872159090909  1.08309659090909 10.6856060606061  0.905539772727273 10.1931818181818  C 0.727982954545454 9.70075757575757  0.606652462121212 9.35913825757575  0.541548295454546 9.16832386363637  C 0.476444128787879 8.97750946969697  0.390625 8.68821022727273  0.284090909090909 8.30042613636363  C 0.177556818181818 7.91264204545454  0.103574810606061 7.55871212121212  0.0621448863636364 7.23863636363636  C 0.0207149621212121 6.9185606060606  0 6.59232954545454  0 6.25994318181818  C 0 5.12736742424242  0.301846590909091 3.98248106060606  0.905539772727273 2.82528409090909  C 1.56841856060606 1.58191287878787  2.19578598484848 0.83096590909091  2.78764204545455 0.572443181818181  C 3.08357007575758 0.437026515151513  3.48899147727273 0.307765151515149  4.00390625 0.18465909090909  C 4.51882102272727 0.0615530303030292  4.93607954545455 0  5.25568181818182 0  C 5.42140151515152 0  5.54569128787879 0.0184659090909096  5.62855113636364 0.055397727272726  C 5.84161931818182 0.129261363636364  6.15530303030303 0.597064393939394  6.56960227272727 1.45880681818182  C 6.69981060606061 1.69270833333333  6.87736742424243 2.02509469696969  7.10227272727273 2.45596590909091  C 7.32717803030303 2.88683712121212  7.53432765151515 3.27769886363636  7.72372159090909 3.62855113636364  C 7.91311553030303 3.97940340909091  8.09659090909091 4.30871212121212  8.27414772727273 4.61647727272727  C 8.30965909090909 4.66571969696969  8.41323390151515 4.81960227272727  8.58487215909091 5.078125  C 8.75651041666667 5.33664772727273  8.88375946969697 5.55516098484848  8.96661931818182 5.73366477272727  C 9.04947916666667 5.91216856060606  9.09090909090909 6.08759469696969  9.09090909090909 6.25994318181818  C 9.09090909090909 6.5061553030303  8.92223011363636 6.81392045454546  8.58487215909091 7.18323863636364  C 8.24751420454546 7.55255681818182  7.8805634469697 7.89109848484848  7.48401988636364 8.19886363636363  C 7.08747632575758 8.50662878787878  6.72052556818182 8.83285984848485  6.38316761363636 9.17755681818182  C 6.04580965909091 9.52225378787879  5.87713068181818 9.80539772727273  5.87713068181818 10.0269886363636  C 5.87713068181818 10.1377840909091  5.90672348484849 10.2762784090909  5.96590909090909 10.4424715909091  C 6.0250946969697 10.6086647727273  6.07540246212121 10.7348484848485  6.11683238636364 10.8210227272727  C 6.15826231060606 10.907196969697  6.24112215909091 11.0549242424242  6.36541193181818 11.2642045454545  C 6.48970170454545 11.4734848484848  6.55776515151515 11.5904356060606  6.56960227272727 11.6150568181818  C 7.46922348484848 13.3016098484848  8.49905303030303 14.7481060606061  9.65909090909091 15.9545454545455  C 10.8191287878788 17.1609848484848  12.209990530303 18.2320075757576  13.8316761363636 19.1676136363636  C 13.8553503787879 19.1799242424242  13.967803030303 19.2507102272727  14.1690340909091 19.3799715909091  C 14.3702651515152 19.5092329545455  14.5123106060606 19.5954071969697  14.5951704545455 19.6384943181818  C 14.6780303030303 19.6815814393939  14.7993607954545 19.7339015151515  14.9591619318182 19.7954545454545  C 15.1189630681818 19.8570075757576  15.2521306818182 19.8877840909091  15.3586647727273 19.8877840909091  C 15.5717329545455 19.8877840909091  15.8439867424242 19.7123579545455  16.1754261363636 19.3615056818182  C 16.506865530303 19.0106534090909  16.8205492424242 18.6290246212121  17.1164772727273 18.2166193181818  C 17.4124053030303 17.8042140151515  17.7379261363636 17.4225852272727  18.0930397727273 17.0717329545455  C 18.4481534090909 16.7208806818182  18.7440814393939 16.5454545454545  18.9808238636364 16.5454545454545  C 19.1465435606061 16.5454545454545  19.3152225378788 16.5885416666667  19.4868607954545 16.6747159090909  C 19.6584990530303 16.7608901515151  19.8686079545455 16.8932291666667  20.1171875 17.0717329545455  C 20.3657670454545 17.2502367424242  20.5137310606061 17.3579545454545  20.5610795454545 17.3948863636364  C 20.8570075757576 17.5795454545455  21.1736505681818 17.7703598484848  21.5110085227273 17.9673295454545  C 21.8483664772727 18.1642992424242  22.2241950757576 18.3797348484848  22.6384943181818 18.6136363636364  C 23.0527935606061 18.8475378787879  23.3723958333333 19.032196969697  23.5973011363636 19.1676136363636  C 24.4258996212121 19.5984848484848  24.8757102272727 19.9247159090909  24.9467329545455 20.1463068181818  Z " fill-rule="nonzero" fill="#ffffff" stroke="none" transform="matrix(1 0 0 1 88 923 )" />
  </g>
</svg>