<?xml version="1.0" encoding="utf-8"?>
<svg version="1.1" xmlns:xlink="http://www.w3.org/1999/xlink" width="32px" height="26px" xmlns="http://www.w3.org/2000/svg">
  <g transform="matrix(1 0 0 1 -138 -921 )">
    <path d="M 17.6785714285714 3.32150461320085  C 16.0952380952381 2.68180742843624  14.3928571428571 2.36195883605394  12.5714285714286 2.36195883605394  C 10.75 2.36195883605394  9.04761904761905 2.68180742843624  7.46428571428571 3.32150461320085  C 5.88095238095238 3.96120179796546  4.62202380952381 4.82848355807901  3.6875 5.92334989354152  C 2.75297619047619 7.01821622900402  2.28571428571429 8.1930447125621  2.28571428571429 9.44783534421575  C 2.28571428571429 10.4565885971138  2.60119047619048 11.4284362431985  3.23214285714286 12.3633782824698  C 3.86309523809524 13.2983203217412  4.75 14.1102436716347  5.89285714285714 14.7991483321505  L 7.625 15.8325053229241  L 7 17.3825408090845  C 7.40476190476191 17.1365034303288  7.77380952380952 16.8966169860421  8.10714285714286 16.6628814762243  L 8.89285714285714 16.0908445706175  L 9.83928571428571 16.2753726046842  C 10.7678571428571 16.4475987698131  11.6785714285714 16.5337118523776  12.5714285714286 16.5337118523776  C 14.3928571428571 16.5337118523776  16.0952380952381 16.2138632599953  17.6785714285714 15.5741660752307  C 19.2619047619048 14.9344688904661  20.5208333333333 14.0671871303525  21.4553571428571 12.97232079489  C 22.389880952381 11.8774544594275  22.8571428571429 10.7026259758694  22.8571428571429 9.44783534421575  C 22.8571428571429 8.1930447125621  22.389880952381 7.01821622900402  21.4553571428571 5.92334989354152  C 20.5208333333333 4.82848355807901  19.2619047619048 3.96120179796546  17.6785714285714 3.32150461320085  Z M 6.25892857142857 1.26401703335699  C 8.19345238095238 0.421339011118996  10.297619047619 0  12.5714285714286 0  C 14.8452380952381 0  16.9494047619048 0.421339011118996  18.8839285714286 1.26401703335699  C 20.8184523809524 2.10669505559498  22.3452380952381 3.25384433404305  23.4642857142857 4.70546486870121  C 24.5833333333333 6.15708540335935  25.1428571428571 7.73787556186421  25.1428571428571 9.44783534421575  C 25.1428571428571 11.1577951265673  24.5833333333333 12.7385852850722  23.4642857142857 14.1902058197303  C 22.3452380952381 15.6418263543885  20.8184523809524 16.7889756328365  18.8839285714286 17.6316536550745  C 16.9494047619048 18.4743316773125  14.8452380952381 18.8956706884315  12.5714285714286 18.8956706884315  C 11.547619047619 18.8956706884315  10.5 18.7972557369293  9.42857142857143 18.6004258339248  C 7.95238095238095 19.6829903004495  6.29761904761905 20.4703099124675  4.46428571428571 20.9623846699787  C 4.03571428571429 21.0731014904187  3.52380952380952 21.171516441921  2.92857142857143 21.2576295244854  L 2.875 21.2576295244854  C 2.74404761904762 21.2576295244854  2.62202380952381 21.2084220487343  2.50892857142857 21.1100070972321  C 2.39583333333333 21.0115921457298  2.32738095238095 20.8824225218831  2.30357142857143 20.722498225692  C 2.29166666666667 20.6855926188786  2.28571428571429 20.6456115448308  2.28571428571429 20.6025550035486  C 2.28571428571429 20.5594984622664  2.28869047619048 20.5195173882186  2.29464285714286 20.4826117814053  C 2.30059523809524 20.4457061745919  2.3125 20.4088005677786  2.33035714285714 20.3718949609652  L 2.375 20.2796309439319  C 2.375 20.2796309439319  2.39583333333333 20.245800804353  2.4375 20.1781405251952  C 2.47916666666667 20.1104802460374  2.50297619047619 20.0797255736929  2.50892857142857 20.0858765081618  C 2.51488095238095 20.0920274426307  2.54166666666667 20.0612727702863  2.58928571428571 19.9936124911285  C 2.63690476190476 19.9259522119707  2.66071428571429 19.8982730068607  2.66071428571429 19.9105748757984  C 2.7202380952381 19.8367636621718  2.85714285714286 19.6829903004495  3.07142857142857 19.4492547906317  C 3.28571428571429 19.2155192808138  3.44047619047619 19.0340667139815  3.53571428571429 18.9048970901348  C 3.63095238095238 18.7757274662881  3.76488095238095 18.5973503666903  3.9375 18.3697657913414  C 4.11011904761905 18.1421812159924  4.25892857142857 17.9053702389401  4.38392857142857 17.6593328601845  C 4.50892857142857 17.4132954814289  4.63095238095238 17.1426543647977  4.75 16.847409510291  C 3.27380952380952 15.9616749467708  2.11309523809524 14.8729595457771  1.26785714285714 13.5812633073101  C 0.422619047619048 12.2895670688432  0 10.9117577478117  0 9.44783534421575  C 0 7.73787556186421  0.55952380952381 6.15708540335935  1.67857142857143 4.70546486870121  C 2.79761904761905 3.25384433404305  4.32440476190476 2.10669505559498  6.25892857142857 1.26401703335699  Z M 30.7321428571429 18.3144073811214  C 29.8869047619048 19.5999526851195  28.7261904761905 20.6855926188786  27.25 21.5713271823989  C 27.3690476190476 21.8665720369056  27.4910714285714 22.1372131535368  27.6160714285714 22.3832505322924  C 27.7410714285714 22.629287911048  27.889880952381 22.8660988881003  28.0625 23.0936834634493  C 28.235119047619 23.3212680387982  28.3690476190476 23.499645138396  28.4642857142857 23.6288147622427  C 28.5595238095238 23.7579843860894  28.7142857142857 23.9394369529217  28.9285714285714 24.1731724627395  C 29.1428571428571 24.4069079725574  29.2797619047619 24.5606813342796  29.3392857142857 24.6344925479063  C 29.3511904761905 24.6467944168441  29.375 24.6744736219541  29.4107142857143 24.7175301632363  C 29.4464285714286 24.7605867045186  29.4732142857143 24.791341376863  29.4910714285714 24.8097941802697  C 29.5089285714286 24.8282469836764  29.5327380952381 24.8590016560208  29.5625 24.9020581973031  C 29.5922619047619 24.9451147385853  29.6130952380952 24.9789448781642  29.625 25.0035486160397  L 29.6696428571429 25.0958126330731  C 29.6696428571429 25.0958126330731  29.6815476190476 25.1327182398864  29.7053571428571 25.2065294535131  C 29.7291666666667 25.2803406671398  29.7321428571429 25.3203217411876  29.7142857142857 25.3264726756565  C 29.6964285714286 25.3326236101254  29.6904761904762 25.3726046841732  29.6964285714286 25.4464158977999  C 29.6607142857143 25.6186420629288  29.5833333333333 25.7539626212444  29.4642857142857 25.8523775727466  C 29.3452380952381 25.9507925242489  29.2142857142857 25.9938490655311  29.0714285714286 25.9815471965933  C 28.4761904761905 25.8954341140289  27.9642857142857 25.7970191625266  27.5357142857143 25.6863023420866  C 25.702380952381 25.1942275845753  24.047619047619 24.4069079725574  22.5714285714286 23.3243435060326  C 21.5 23.5211734090371  20.452380952381 23.6195883605394  19.4285714285714 23.6195883605394  C 16.202380952381 23.6195883605394  13.3928571428571 22.8076650106458  11 21.1838183108588  C 11.6904761904762 21.2330257866099  12.2142857142857 21.2576295244854  12.5714285714286 21.2576295244854  C 14.4880952380952 21.2576295244854  16.327380952381 20.9808374733854  18.0892857142857 20.4272533711852  C 19.8511904761905 19.8736692689851  21.422619047619 19.0801987224982  22.8035714285714 18.0468417317246  C 24.2916666666667 16.9150697894488  25.4345238095238 15.611071682044  26.2321428571429 14.1348474095103  C 27.0297619047619 12.6586231369766  27.4285714285714 11.0962857818784  27.4285714285714 9.44783534421575  C 27.4285714285714 8.50059143600662  27.2916666666667 7.56564939673527  27.0178571428571 6.6430092264017  C 28.5535714285714 7.51644192098415  29.7678571428571 8.61130825644665  30.6607142857143 9.92760823278921  C 31.5535714285714 11.2439082091318  32 12.6586231369766  32 14.1717530163236  C 32 15.6479772888573  31.577380952381 17.0288620771233  30.7321428571429 18.3144073811214  Z " fill-rule="nonzero" fill="#ffffff" stroke="none" transform="matrix(1 0 0 1 138 921 )" />
  </g>
</svg>