<?xml version="1.0" encoding="utf-8"?>
<svg version="1.1" xmlns:xlink="http://www.w3.org/1999/xlink" width="25px" height="21px" xmlns="http://www.w3.org/2000/svg">
  <g transform="matrix(1 0 0 1 -200 -925 )">
    <path d="M 23.6049107142857 8.06889204545455  C 24.1350446428571 7.68110795454545  24.6000744047619 7.24857954545455  25 6.77130681818182  L 25 18.6136363636364  C 25 19.2698863636364  24.7814360119048 19.8316761363636  24.3443080357143 20.2990056818182  C 23.9071800595238 20.7663352272727  23.3816964285714 21  22.7678571428571 21  L 2.23214285714286 21  C 1.61830357142857 21  1.09281994047619 20.7663352272727  0.655691964285714 20.2990056818182  C 0.218563988095238 19.8316761363636  0 19.2698863636364  0 18.6136363636364  L 0 6.77130681818182  C 0.409226190476191 7.25852272727273  0.87890625 7.69105113636363  1.40904017857143 8.06889204545455  C 4.77585565476191 10.5149147727273  7.08705357142857 12.2301136363636  8.34263392857143 13.2144886363636  C 8.87276785714286 13.6321022727273  9.30292038690476 13.9577414772727  9.63309151785714 14.19140625  C 9.96326264880953 14.4250710227273  10.4027157738095 14.6637073863636  10.9514508928571 14.9073153409091  C 11.5001860119048 15.1509232954545  12.01171875 15.2727272727273  12.4860491071429 15.2727272727273  L 12.5 15.2727272727273  L 12.5139508928571 15.2727272727273  C 12.98828125 15.2727272727273  13.4998139880952 15.1509232954545  14.0485491071429 14.9073153409091  C 14.5972842261905 14.6637073863636  15.0367373511905 14.4250710227273  15.3669084821429 14.19140625  C 15.6970796130952 13.9577414772727  16.1272321428571 13.6321022727273  16.6573660714286 13.2144886363636  C 18.2384672619048 11.9914772727273  20.5543154761905 10.2762784090909  23.6049107142857 8.06889204545455  Z M 24.3373325892857 0.700994318181817  C 24.7791108630952 1.16832386363636  25 1.73011363636364  25 2.38636363636364  C 25 3.171875  24.7721354166667 3.92258522727273  24.31640625 4.63849431818182  C 23.8606770833333 5.35440340909091  23.2933407738095 5.96590909090909  22.6143973214286 6.47301136363636  C 19.1173735119048 9.06818181818182  16.9410342261905 10.6839488636364  16.0853794642857 11.3203125  C 15.9923735119048 11.3899147727273  15.7947358630952 11.5415482954545  15.4924665178571 11.7752130681818  C 15.190197172619 12.0088778409091  14.9390811011905 12.1977982954545  14.7391183035714 12.3419744318182  C 14.5391555059524 12.4861505681818  14.2973400297619 12.6477272727273  14.013671875 12.8267045454545  C 13.7300037202381 13.0056818181818  13.4626116071429 13.1399147727273  13.2114955357143 13.2294034090909  C 12.9603794642857 13.3188920454545  12.7278645833333 13.3636363636364  12.5139508928571 13.3636363636364  L 12.5 13.3636363636364  L 12.4860491071429 13.3636363636364  C 12.2721354166667 13.3636363636364  12.0396205357143 13.3188920454545  11.7885044642857 13.2294034090909  C 11.5373883928571 13.1399147727273  11.2699962797619 13.0056818181818  10.986328125 12.8267045454545  C 10.7026599702381 12.6477272727273  10.4608444940476 12.4861505681818  10.2608816964286 12.3419744318182  C 10.0609188988095 12.1977982954545  9.80980282738095 12.0088778409091  9.50753348214286 11.7752130681818  C 9.20526413690476 11.5415482954545  9.00762648809524 11.3899147727273  8.91462053571429 11.3203125  C 8.06826636904762 10.6839488636364  6.84988839285714 9.77663352272727  5.25948660714286 8.59836647727273  C 3.66908482142857 7.42009943181818  2.71577380952381 6.71164772727272  2.39955357142857 6.47301136363636  C 1.82291666666667 6.05539772727272  1.2788318452381 5.48117897727273  0.767299107142857 4.75035511363636  C 0.255766369047619 4.01953125  0 3.34090909090909  0 2.71448863636364  C 0 1.93892045454545  0.192987351190476 1.29261363636363  0.578962053571429 0.775568181818183  C 0.964936755952381 0.258522727272725  1.51599702380952 0  2.23214285714286 0  L 22.7678571428571 0  C 23.3723958333333 0  23.8955543154762 0.23366477272727  24.3373325892857 0.700994318181817  Z " fill-rule="nonzero" fill="#ffffff" stroke="none" transform="matrix(1 0 0 1 200 925 )" />
  </g>
</svg>