<?xml version="1.0" encoding="utf-8"?>
<svg version="1.1" xmlns:xlink="http://www.w3.org/1999/xlink" width="41px" height="43px" xmlns="http://www.w3.org/2000/svg">
  <g transform="matrix(1 0 0 1 -26 -914 )">
    <path d="M 28.6450892857143 37.8289620535714  C 31.1618303571429 36.4292224702381  33.2286086309524 34.5295758928571  34.8454241071429 32.1300223214286  C 34.5098586309524 29.6504836309524  33.8425409226191 27.5908668154762  32.8434709821429 25.951171875  C 31.8444010416667 24.3114769345238  30.4373139880952 23.3636532738095  28.6222098214286 23.1077008928571  C 27.6002604166667 24.2914806547619  26.3838355654762 25.2153087797619  24.9729352678571 25.8791852678571  C 23.5620349702381 26.5430617559524  22.0710565476191 26.875  20.5 26.875  C 18.928943452381 26.875  17.4379650297619 26.5430617559524  16.0270647321429 25.8791852678571  C 14.6161644345238 25.2153087797619  13.3997395833333 24.2914806547619  12.3777901785714 23.1077008928571  C 10.5626860119048 23.3636532738095  9.15559895833333 24.3114769345238  8.15652901785714 25.951171875  C 7.15745907738095 27.5908668154762  6.49014136904762 29.6504836309524  6.15457589285714 32.1300223214286  C 7.77139136904762 34.5295758928571  9.83816964285714 36.4292224702381  12.3549107142857 37.8289620535714  C 14.8716517857143 39.2287016369048  17.5866815476191 39.9285714285714  20.5 39.9285714285714  C 23.413318452381 39.9285714285714  26.1283482142857 39.2287016369048  28.6450892857143 37.8289620535714  Z M 26.7117745535714 21.8719308035714  C 28.427734375 20.072265625  29.2857142857143 17.9006696428571  29.2857142857143 15.3571428571429  C 29.2857142857143 12.8136160714286  28.427734375 10.6420200892857  26.7117745535714 8.84235491071428  C 24.9958147321429 7.04268973214285  22.9252232142857 6.14285714285715  20.5 6.14285714285715  C 18.0747767857143 6.14285714285715  16.0041852678571 7.04268973214285  14.2882254464286 8.84235491071428  C 12.572265625 10.6420200892857  11.7142857142857 12.8136160714286  11.7142857142857 15.3571428571429  C 11.7142857142857 17.9006696428571  12.572265625 20.072265625  14.2882254464286 21.8719308035714  C 16.0041852678571 23.6715959821429  18.0747767857143 24.5714285714286  20.5 24.5714285714286  C 22.9252232142857 24.5714285714286  24.9958147321429 23.6715959821429  26.7117745535714 21.8719308035714  Z M 39.3755580357143 13.1495535714286  C 40.4585193452381 15.8050595238095  41 18.5885416666667  41 21.5  C 41 24.4114583333333  40.4585193452381 27.1909412202381  39.3755580357143 29.8384486607143  C 38.2925967261905 32.4859561011905  36.8397507440476 34.7735305059524  35.0170200892857 36.701171875  C 33.1942894345238 38.6288132440476  31.0169270833333 40.1605282738095  28.4849330357143 41.2963169642857  C 25.9529389880952 42.4321056547619  23.2912946428571 43  20.5 43  C 17.7239583333333 43  15.0699404761905 42.4321056547619  12.5379464285714 41.2963169642857  C 10.0059523809524 40.1605282738095  7.82477678571429 38.6328125  5.99441964285714 36.7131696428571  C 4.1640625 34.7935267857143  2.70740327380952 32.5059523809524  1.62444196428571 29.8504464285714  C 0.541480654761905 27.1949404761905  0 24.4114583333333  0 21.5  C 0 18.5885416666667  0.541480654761905 15.8050595238095  1.62444196428571 13.1495535714286  C 2.70740327380952 10.4940476190476  4.1640625 8.20647321428572  5.99441964285714 6.28683035714285  C 7.82477678571429 4.3671875  10.0059523809524 2.83947172619047  12.5379464285714 1.70368303571429  C 15.0699404761905 0.567894345238095  17.7239583333333 0  20.5 0  C 23.2760416666667 0  25.9300595238095 0.567894345238095  28.4620535714286 1.70368303571429  C 30.9940476190476 2.83947172619047  33.1752232142857 4.3671875  35.0055803571429 6.28683035714285  C 36.8359375 8.20647321428572  38.2925967261905 10.4940476190476  39.3755580357143 13.1495535714286  Z " fill-rule="nonzero" fill="#aec3c8" stroke="none" transform="matrix(1 0 0 1 26 914 )" />
  </g>
</svg>