<?xml version="1.0" encoding="utf-8"?>
<svg version="1.1" xmlns:xlink="http://www.w3.org/1999/xlink" width="19px" height="19px" viewBox="60 332  19 19" xmlns="http://www.w3.org/2000/svg">
  <path d="M 60.5 337  A 4.5 4.5 0 0 1 65 332.5 L 74 332.5  A 4.5 4.5 0 0 1 78.5 337 L 78.5 346  A 4.5 4.5 0 0 1 74 350.5 L 65 350.5  A 4.5 4.5 0 0 1 60.5 346 L 60.5 337  Z " fill-rule="nonzero" fill="#ffffff" stroke="none" />
  <path d="M 60.5 337  A 4.5 4.5 0 0 1 65 332.5 L 74 332.5  A 4.5 4.5 0 0 1 78.5 337 L 78.5 346  A 4.5 4.5 0 0 1 74 350.5 L 65 350.5  A 4.5 4.5 0 0 1 60.5 346 L 60.5 337  Z " stroke-width="1" stroke="#d7d6d6" fill="none" />
</svg>