<?xml version="1.0" encoding="utf-8"?>
<svg version="1.1" xmlns:xlink="http://www.w3.org/1999/xlink" width="25px" height="25px" xmlns="http://www.w3.org/2000/svg">
  <g transform="matrix(1 0 0 1 -6 -5 )">
    <path d="M 20.5240885416667 14.2740885416667  C 20.7302517361111 14.0679253472222  20.8333333333333 13.8237847222222  20.8333333333333 13.5416666666667  L 20.8333333333333 11.4583333333333  C 20.8333333333333 11.1762152777778  20.7302517361111 10.9320746527778  20.5240885416667 10.7259114583333  C 20.3179253472222 10.5197482638889  20.0737847222222 10.4166666666667  19.7916666666667 10.4166666666667  L 11.62109375 10.4166666666667  L 14.697265625 7.34049479166667  C 14.9034288194444 7.13433159722222  15.0065104166667 6.89019097222222  15.0065104166667 6.60807291666667  C 15.0065104166667 6.32595486111111  14.9034288194444 6.08181423611111  14.697265625 5.87565104166667  L 13.2161458333333 4.39453125  C 13.0208333333333 4.19921875  12.7766927083333 4.1015625  12.4837239583333 4.1015625  C 12.1907552083333 4.1015625  11.9466145833333 4.19921875  11.7513020833333 4.39453125  L 5.859375 10.2864583333333  L 4.37825520833333 11.767578125  C 4.18294270833333 11.962890625  4.08528645833333 12.20703125  4.08528645833333 12.5  C 4.08528645833333 12.79296875  4.18294270833333 13.037109375  4.37825520833333 13.232421875  L 5.859375 14.7135416666667  L 11.7513020833333 20.60546875  C 11.9466145833333 20.80078125  12.1907552083333 20.8984375  12.4837239583333 20.8984375  C 12.7766927083333 20.8984375  13.0208333333333 20.80078125  13.2161458333333 20.60546875  L 14.697265625 19.1243489583333  C 14.892578125 18.9290364583333  14.990234375 18.6848958333333  14.990234375 18.3919270833333  C 14.990234375 18.0989583333333  14.892578125 17.8548177083333  14.697265625 17.6595052083333  L 11.62109375 14.5833333333333  L 19.7916666666667 14.5833333333333  C 20.0737847222222 14.5833333333333  20.3179253472222 14.4802517361111  20.5240885416667 14.2740885416667  Z M 23.3235677083333 6.2255859375  C 24.4411892361111 8.14073350694444  25 10.2322048611111  25 12.5  C 25 14.7677951388889  24.4411892361111 16.8592664930556  23.3235677083333 18.7744140625  C 22.2059461805556 20.6895616319444  20.6895616319444 22.2059461805556  18.7744140625 23.3235677083333  C 16.8592664930556 24.4411892361111  14.7677951388889 25  12.5 25  C 10.2322048611111 25  8.14073350694444 24.4411892361111  6.2255859375 23.3235677083333  C 4.31043836805556 22.2059461805556  2.79405381944444 20.6895616319444  1.67643229166667 18.7744140625  C 0.558810763888889 16.8592664930556  0 14.7677951388889  0 12.5  C 0 10.2322048611111  0.558810763888889 8.14073350694444  1.67643229166667 6.2255859375  C 2.79405381944444 4.31043836805556  4.31043836805556 2.79405381944444  6.2255859375 1.67643229166667  C 8.14073350694444 0.558810763888887  10.2322048611111 0  12.5 0  C 14.7677951388889 0  16.8592664930556 0.558810763888887  18.7744140625 1.67643229166667  C 20.6895616319444 2.79405381944444  22.2059461805556 4.31043836805556  23.3235677083333 6.2255859375  Z " fill-rule="nonzero" fill="#6a939c" stroke="none" transform="matrix(1 0 0 1 6 5 )" />
  </g>
</svg>