<?xml version="1.0" encoding="utf-8"?>
<svg version="1.1" xmlns:xlink="http://www.w3.org/1999/xlink" width="14px" height="14px" xmlns="http://www.w3.org/2000/svg">
  <defs>
    <mask fill="white" id="clip3672">
      <path d="M 14 14  L 13.993 1.4  C 13.993 0.6265  13.3735 0  12.6 0  L 1.4 0  C 0.6265 0  0 0.6265  0 1.4  L 0 9.8  C 0 10.5735  0.6265 11.2  1.4 11.2  L 11.2 11.2  L 14 14  Z " fill-rule="evenodd" />
    </mask>
  </defs>
  <g transform="matrix(1 0 0 1 -87 -1128 )">
    <path d="M 14 14  L 13.993 1.4  C 13.993 0.6265  13.3735 0  12.6 0  L 1.4 0  C 0.6265 0  0 0.6265  0 1.4  L 0 9.8  C 0 10.5735  0.6265 11.2  1.4 11.2  L 11.2 11.2  L 14 14  Z " fill-rule="nonzero" fill="#b2cfd5" stroke="none" fill-opacity="0" transform="matrix(1 0 0 1 87 1128 )" />
    <path d="M 14 14  L 13.993 1.4  C 13.993 0.6265  13.3735 0  12.6 0  L 1.4 0  C 0.6265 0  0 0.6265  0 1.4  L 0 9.8  C 0 10.5735  0.6265 11.2  1.4 11.2  L 11.2 11.2  L 14 14  Z " stroke-width="2" stroke="#b2cfd5" fill="none" transform="matrix(1 0 0 1 87 1128 )" mask="url(#clip3672)" />
  </g>
</svg>