<?xml version="1.0" encoding="utf-8"?>
<svg version="1.1" xmlns:xlink="http://www.w3.org/1999/xlink" width="17px" height="14px" xmlns="http://www.w3.org/2000/svg">
  <defs>
    <mask fill="white" id="clip3671">
      <path d="M 0 14  C 0.944444444444445 9.33333333333333  3.77777777777778 4.66666666666667  10.3888888888889 3.73333333333333  L 10.3888888888889 0  L 17 6.53333333333333  L 10.3888888888889 13.0666666666667  L 10.3888888888889 9.24  C 5.66666666666667 9.24  2.36111111111111 10.7333333333333  0 14  Z " fill-rule="evenodd" />
    </mask>
  </defs>
  <g transform="matrix(1 0 0 1 -116 -1128 )">
    <path d="M 0 14  C 0.944444444444445 9.33333333333333  3.77777777777778 4.66666666666667  10.3888888888889 3.73333333333333  L 10.3888888888889 0  L 17 6.53333333333333  L 10.3888888888889 13.0666666666667  L 10.3888888888889 9.24  C 5.66666666666667 9.24  2.36111111111111 10.7333333333333  0 14  Z " fill-rule="nonzero" fill="#b2cfd5" stroke="none" fill-opacity="0" transform="matrix(1 0 0 1 116 1128 )" />
    <path d="M 0 14  C 0.944444444444445 9.33333333333333  3.77777777777778 4.66666666666667  10.3888888888889 3.73333333333333  L 10.3888888888889 0  L 17 6.53333333333333  L 10.3888888888889 13.0666666666667  L 10.3888888888889 9.24  C 5.66666666666667 9.24  2.36111111111111 10.7333333333333  0 14  Z " stroke-width="2" stroke="#b2cfd5" fill="none" transform="matrix(1 0 0 1 116 1128 )" mask="url(#clip3671)" />
  </g>
</svg>