<?xml version="1.0" encoding="utf-8"?>
<svg version="1.1" xmlns:xlink="http://www.w3.org/1999/xlink" width="34px" height="26px" xmlns="http://www.w3.org/2000/svg">
  <g transform="matrix(1 0 0 1 -144 -921 )">
    <path d="M 18.7834821428571 3.32150461320085  C 17.1011904761905 2.68180742843624  15.2924107142857 2.36195883605394  13.3571428571429 2.36195883605394  C 11.421875 2.36195883605394  9.61309523809524 2.68180742843624  7.93080357142857 3.32150461320085  C 6.24851190476191 3.96120179796546  4.91090029761905 4.82848355807901  3.91796875 5.92334989354152  C 2.92503720238095 7.01821622900402  2.42857142857143 8.1930447125621  2.42857142857143 9.44783534421575  C 2.42857142857143 10.4565885971138  2.76376488095238 11.4284362431985  3.43415178571429 12.3633782824698  C 4.10453869047619 13.2983203217412  5.046875 14.1102436716347  6.26116071428571 14.7991483321505  L 8.1015625 15.8325053229241  L 7.4375 17.3825408090845  C 7.86755952380953 17.1365034303288  8.25967261904762 16.8966169860421  8.61383928571429 16.6628814762243  L 9.44866071428571 16.0908445706175  L 10.4542410714286 16.2753726046842  C 11.4408482142857 16.4475987698131  12.4084821428571 16.5337118523776  13.3571428571429 16.5337118523776  C 15.2924107142857 16.5337118523776  17.1011904761905 16.2138632599953  18.7834821428571 15.5741660752307  C 20.4657738095238 14.9344688904661  21.8033854166667 14.0671871303525  22.7963169642857 12.97232079489  C 23.7892485119048 11.8774544594275  24.2857142857143 10.7026259758694  24.2857142857143 9.44783534421575  C 24.2857142857143 8.1930447125621  23.7892485119048 7.01821622900402  22.7963169642857 5.92334989354152  C 21.8033854166667 4.82848355807901  20.4657738095238 3.96120179796546  18.7834821428571 3.32150461320085  Z M 6.65011160714286 1.26401703335699  C 8.70554315476191 0.421339011118996  10.9412202380952 0  13.3571428571429 0  C 15.7730654761905 0  18.0087425595238 0.421339011118996  20.0641741071429 1.26401703335699  C 22.1196056547619 2.10669505559498  23.7418154761905 3.25384433404305  24.9308035714286 4.70546486870121  C 26.1197916666667 6.15708540335935  26.7142857142857 7.73787556186421  26.7142857142857 9.44783534421575  C 26.7142857142857 11.1577951265673  26.1197916666667 12.7385852850722  24.9308035714286 14.1902058197303  C 23.7418154761905 15.6418263543885  22.1196056547619 16.7889756328365  20.0641741071429 17.6316536550745  C 18.0087425595238 18.4743316773125  15.7730654761905 18.8956706884315  13.3571428571429 18.8956706884315  C 12.2693452380952 18.8956706884315  11.15625 18.7972557369293  10.0178571428571 18.6004258339248  C 8.44940476190476 19.6829903004495  6.69122023809524 20.4703099124675  4.74330357142857 20.9623846699787  C 4.28794642857143 21.0731014904187  3.74404761904762 21.171516441921  3.11160714285714 21.2576295244854  L 3.0546875 21.2576295244854  C 2.9155505952381 21.2576295244854  2.78590029761905 21.2084220487343  2.66573660714286 21.1100070972321  C 2.54557291666667 21.0115921457298  2.47284226190476 20.8824225218831  2.44754464285714 20.722498225692  C 2.43489583333333 20.6855926188786  2.42857142857143 20.6456115448308  2.42857142857143 20.6025550035486  C 2.42857142857143 20.5594984622664  2.43173363095238 20.5195173882186  2.43805803571429 20.4826117814053  C 2.44438244047619 20.4457061745919  2.45703125 20.4088005677786  2.47600446428571 20.3718949609652  L 2.5234375 20.2796309439319  C 2.5234375 20.2796309439319  2.54557291666667 20.245800804353  2.58984375 20.1781405251952  C 2.63411458333333 20.1104802460374  2.65941220238095 20.0797255736929  2.66573660714286 20.0858765081618  C 2.67206101190476 20.0920274426307  2.70052083333333 20.0612727702863  2.75111607142857 19.9936124911285  C 2.80171130952381 19.9259522119707  2.82700892857143 19.8982730068607  2.82700892857143 19.9105748757984  C 2.89025297619048 19.8367636621718  3.03571428571429 19.6829903004495  3.26339285714286 19.4492547906317  C 3.49107142857143 19.2155192808138  3.65550595238095 19.0340667139815  3.75669642857143 18.9048970901348  C 3.8578869047619 18.7757274662881  4.00018601190476 18.5973503666903  4.18359375 18.3697657913414  C 4.36700148809524 18.1421812159924  4.52511160714286 17.9053702389401  4.65792410714286 17.6593328601845  C 4.79073660714286 17.4132954814289  4.92038690476191 17.1426543647977  5.046875 16.847409510291  C 3.47842261904762 15.9616749467708  2.24516369047619 14.8729595457771  1.34709821428571 13.5812633073101  C 0.449032738095238 12.2895670688432  0 10.9117577478117  0 9.44783534421575  C 0 7.73787556186421  0.594494047619048 6.15708540335935  1.78348214285714 4.70546486870121  C 2.97247023809524 3.25384433404305  4.59468005952381 2.10669505559498  6.65011160714286 1.26401703335699  Z M 32.6529017857143 18.3144073811214  C 31.7548363095238 19.5999526851195  30.5215773809524 20.6855926188786  28.953125 21.5713271823989  C 29.0796130952381 21.8665720369056  29.2092633928571 22.1372131535368  29.3420758928571 22.3832505322924  C 29.4748883928571 22.629287911048  29.6329985119048 22.8660988881003  29.81640625 23.0936834634493  C 29.9998139880952 23.3212680387982  30.1421130952381 23.499645138396  30.2433035714286 23.6288147622427  C 30.3444940476191 23.7579843860894  30.5089285714286 23.9394369529217  30.7366071428571 24.1731724627395  C 30.9642857142857 24.4069079725574  31.1097470238095 24.5606813342796  31.1729910714286 24.6344925479063  C 31.1856398809524 24.6467944168441  31.2109375 24.6744736219541  31.2488839285714 24.7175301632363  C 31.2868303571429 24.7605867045186  31.3152901785714 24.791341376863  31.3342633928571 24.8097941802697  C 31.3532366071429 24.8282469836764  31.3785342261905 24.8590016560208  31.41015625 24.9020581973031  C 31.4417782738095 24.9451147385853  31.4639136904762 24.9789448781642  31.4765625 25.0035486160397  L 31.5239955357143 25.0958126330731  C 31.5239955357143 25.0958126330731  31.5366443452381 25.1327182398864  31.5619419642857 25.2065294535131  C 31.5872395833333 25.2803406671398  31.5904017857143 25.3203217411876  31.5714285714286 25.3264726756565  C 31.5524553571429 25.3326236101254  31.546130952381 25.3726046841732  31.5524553571429 25.4464158977999  C 31.5145089285714 25.6186420629288  31.4322916666667 25.7539626212444  31.3058035714286 25.8523775727466  C 31.1793154761905 25.9507925242489  31.0401785714286 25.9938490655311  30.8883928571429 25.9815471965933  C 30.2559523809524 25.8954341140289  29.7120535714286 25.7970191625266  29.2566964285714 25.6863023420866  C 27.3087797619048 25.1942275845753  25.5505952380952 24.4069079725574  23.9821428571429 23.3243435060326  C 22.84375 23.5211734090371  21.7306547619048 23.6195883605394  20.6428571428571 23.6195883605394  C 17.2150297619048 23.6195883605394  14.2299107142857 22.8076650106458  11.6875 21.1838183108588  C 12.421130952381 21.2330257866099  12.9776785714286 21.2576295244854  13.3571428571429 21.2576295244854  C 15.3936011904762 21.2576295244854  17.3478422619048 20.9808374733854  19.2198660714286 20.4272533711852  C 21.0918898809524 19.8736692689851  22.7615327380952 19.0801987224982  24.2287946428571 18.0468417317246  C 25.8098958333333 16.9150697894488  27.0241815476191 15.611071682044  27.8716517857143 14.1348474095103  C 28.7191220238095 12.6586231369766  29.1428571428571 11.0962857818784  29.1428571428571 9.44783534421575  C 29.1428571428571 8.50059143600662  28.9973958333333 7.56564939673527  28.7064732142857 6.6430092264017  C 30.3381696428571 7.51644192098415  31.6283482142857 8.61130825644665  32.5770089285714 9.92760823278921  C 33.5256696428571 11.2439082091318  34 12.6586231369766  34 14.1717530163236  C 34 15.6479772888573  33.5509672619048 17.0288620771233  32.6529017857143 18.3144073811214  Z " fill-rule="nonzero" fill="#ffffff" stroke="none" transform="matrix(1 0 0 1 144 921 )" />
  </g>
</svg>