<?xml version="1.0" encoding="utf-8"?>
<svg version="1.1" xmlns:xlink="http://www.w3.org/1999/xlink" width="26px" height="21px" xmlns="http://www.w3.org/2000/svg">
  <g transform="matrix(1 0 0 1 -209 -925 )">
    <path d="M 24.5491071428571 8.06889204545455  C 25.1004464285714 7.68110795454545  25.5840773809524 7.24857954545455  26 6.77130681818182  L 26 18.6136363636364  C 26 19.2698863636364  25.772693452381 19.8316761363636  25.3180803571429 20.2990056818182  C 24.8634672619048 20.7663352272727  24.3169642857143 21  23.6785714285714 21  L 2.32142857142857 21  C 1.68303571428571 21  1.13653273809524 20.7663352272727  0.681919642857143 20.2990056818182  C 0.227306547619048 19.8316761363636  0 19.2698863636364  0 18.6136363636364  L 0 6.77130681818182  C 0.425595238095238 7.25852272727273  0.9140625 7.69105113636363  1.46540178571429 8.06889204545455  C 4.96688988095238 10.5149147727273  7.37053571428571 12.2301136363636  8.67633928571429 13.2144886363636  C 9.22767857142857 13.6321022727273  9.67503720238095 13.9577414772727  10.0184151785714 14.19140625  C 10.3617931547619 14.4250710227273  10.8188244047619 14.6637073863636  11.3895089285714 14.9073153409091  C 11.960193452381 15.1509232954545  12.4921875 15.2727272727273  12.9854910714286 15.2727272727273  L 13 15.2727272727273  L 13.0145089285714 15.2727272727273  C 13.5078125 15.2727272727273  14.039806547619 15.1509232954545  14.6104910714286 14.9073153409091  C 15.1811755952381 14.6637073863636  15.6382068452381 14.4250710227273  15.9815848214286 14.19140625  C 16.324962797619 13.9577414772727  16.7723214285714 13.6321022727273  17.3236607142857 13.2144886363636  C 18.968005952381 11.9914772727273  21.3764880952381 10.2762784090909  24.5491071428571 8.06889204545455  Z M 25.3108258928571 0.700994318181817  C 25.770275297619 1.16832386363636  26 1.73011363636364  26 2.38636363636364  C 26 3.171875  25.7630208333333 3.92258522727273  25.2890625 4.63849431818182  C 24.8151041666667 5.35440340909091  24.2250744047619 5.96590909090909  23.5189732142857 6.47301136363636  C 19.882068452381 9.06818181818182  17.6186755952381 10.6839488636364  16.7287946428571 11.3203125  C 16.632068452381 11.3899147727273  16.426525297619 11.5415482954545  16.1121651785714 11.7752130681818  C 15.7978050595238 12.0088778409091  15.5366443452381 12.1977982954545  15.3286830357143 12.3419744318182  C 15.1207217261905 12.4861505681818  14.8692336309524 12.6477272727273  14.57421875 12.8267045454545  C 14.2792038690476 13.0056818181818  14.0011160714286 13.1399147727273  13.7399553571429 13.2294034090909  C 13.4787946428571 13.3188920454545  13.2369791666667 13.3636363636364  13.0145089285714 13.3636363636364  L 13 13.3636363636364  L 12.9854910714286 13.3636363636364  C 12.7630208333333 13.3636363636364  12.5212053571429 13.3188920454545  12.2600446428571 13.2294034090909  C 11.9988839285714 13.1399147727273  11.7207961309524 13.0056818181818  11.42578125 12.8267045454545  C 11.1307663690476 12.6477272727273  10.8792782738095 12.4861505681818  10.6713169642857 12.3419744318182  C 10.4633556547619 12.1977982954545  10.2021949404762 12.0088778409091  9.88783482142857 11.7752130681818  C 9.57347470238095 11.5415482954545  9.36793154761905 11.3899147727273  9.27120535714286 11.3203125  C 8.39099702380952 10.6839488636364  7.12388392857143 9.77663352272727  5.46986607142857 8.59836647727273  C 3.81584821428571 7.42009943181818  2.82440476190476 6.71164772727272  2.49553571428571 6.47301136363636  C 1.89583333333333 6.05539772727272  1.32998511904762 5.48117897727273  0.797991071428572 4.75035511363636  C 0.265997023809524 4.01953125  0 3.34090909090909  0 2.71448863636364  C 0 1.93892045454545  0.200706845238095 1.29261363636363  0.602120535714286 0.775568181818183  C 1.00353422619048 0.258522727272725  1.57663690476191 0  2.32142857142857 0  L 23.6785714285714 0  C 24.3072916666667 0  24.8513764880952 0.23366477272727  25.3108258928571 0.700994318181817  Z " fill-rule="nonzero" fill="#ffffff" stroke="none" transform="matrix(1 0 0 1 209 925 )" />
  </g>
</svg>