<?xml version="1.0" encoding="utf-8"?>
<svg version="1.1" xmlns:xlink="http://www.w3.org/1999/xlink" width="43px" height="43px" xmlns="http://www.w3.org/2000/svg">
  <g transform="matrix(1 0 0 1 -27 -914 )">
    <path d="M 30.0424107142857 37.8289620535714  C 32.6819196428571 36.4292224702381  34.8495163690476 34.5295758928571  36.5452008928571 32.1300223214286  C 36.1932663690476 29.6504836309524  35.493396577381 27.5908668154762  34.4455915178571 25.951171875  C 33.3977864583333 24.3114769345238  31.9220610119048 23.3636532738095  30.0184151785714 23.1077008928571  C 28.9466145833333 24.2914806547619  27.6708519345238 25.2153087797619  26.1911272321429 25.8791852678571  C 24.7114025297619 26.5430617559524  23.147693452381 26.875  21.5 26.875  C 19.852306547619 26.875  18.2885974702381 26.5430617559524  16.8088727678571 25.8791852678571  C 15.3291480654762 25.2153087797619  14.0533854166667 24.2914806547619  12.9815848214286 23.1077008928571  C 11.0779389880952 23.3636532738095  9.60221354166667 24.3114769345238  8.55440848214286 25.951171875  C 7.50660342261905 27.5908668154762  6.80673363095238 29.6504836309524  6.45479910714286 32.1300223214286  C 8.15048363095238 34.5295758928571  10.3180803571429 36.4292224702381  12.9575892857143 37.8289620535714  C 15.5970982142857 39.2287016369048  18.444568452381 39.9285714285714  21.5 39.9285714285714  C 24.5554315476191 39.9285714285714  27.4029017857143 39.2287016369048  30.0424107142857 37.8289620535714  Z M 28.0147879464286 21.8719308035714  C 29.814453125 20.072265625  30.7142857142857 17.9006696428571  30.7142857142857 15.3571428571429  C 30.7142857142857 12.8136160714286  29.814453125 10.6420200892857  28.0147879464286 8.84235491071428  C 26.2151227678571 7.04268973214285  24.0435267857143 6.14285714285715  21.5 6.14285714285715  C 18.9564732142857 6.14285714285715  16.7848772321429 7.04268973214285  14.9852120535714 8.84235491071428  C 13.185546875 10.6420200892857  12.2857142857143 12.8136160714286  12.2857142857143 15.3571428571429  C 12.2857142857143 17.9006696428571  13.185546875 20.072265625  14.9852120535714 21.8719308035714  C 16.7848772321429 23.6715959821429  18.9564732142857 24.5714285714286  21.5 24.5714285714286  C 24.0435267857143 24.5714285714286  26.2151227678571 23.6715959821429  28.0147879464286 21.8719308035714  Z M 41.2963169642857 13.1495535714286  C 42.4321056547619 15.8050595238095  43 18.5885416666667  43 21.5  C 43 24.4114583333333  42.4321056547619 27.1909412202381  41.2963169642857 29.8384486607143  C 40.1605282738095 32.4859561011905  38.6368117559524 34.7735305059524  36.7251674107143 36.701171875  C 34.8135230654762 38.6288132440476  32.5299479166667 40.1605282738095  29.8744419642857 41.2963169642857  C 27.2189360119048 42.4321056547619  24.4274553571429 43  21.5 43  C 18.5885416666667 43  15.8050595238095 42.4321056547619  13.1495535714286 41.2963169642857  C 10.4940476190476 40.1605282738095  8.20647321428571 38.6328125  6.28683035714286 36.7131696428571  C 4.3671875 34.7935267857143  2.83947172619048 32.5059523809524  1.70368303571429 29.8504464285714  C 0.567894345238095 27.1949404761905  0 24.4114583333333  0 21.5  C 0 18.5885416666667  0.567894345238095 15.8050595238095  1.70368303571429 13.1495535714286  C 2.83947172619048 10.4940476190476  4.3671875 8.20647321428572  6.28683035714286 6.28683035714285  C 8.20647321428571 4.3671875  10.4940476190476 2.83947172619047  13.1495535714286 1.70368303571429  C 15.8050595238095 0.567894345238095  18.5885416666667 0  21.5 0  C 24.4114583333333 0  27.1949404761905 0.567894345238095  29.8504464285714 1.70368303571429  C 32.5059523809524 2.83947172619047  34.7935267857143 4.3671875  36.7131696428571 6.28683035714285  C 38.6328125 8.20647321428572  40.1605282738095 10.4940476190476  41.2963169642857 13.1495535714286  Z " fill-rule="nonzero" fill="#aec3c8" stroke="none" transform="matrix(1 0 0 1 27 914 )" />
  </g>
</svg>