<?xml version="1.0" encoding="utf-8"?>
<svg version="1.1" xmlns:xlink="http://www.w3.org/1999/xlink" width="19px" height="19px" viewBox="57 331  19 19" xmlns="http://www.w3.org/2000/svg">
  <path d="M 57.5 336  A 4.5 4.5 0 0 1 62 331.5 L 71 331.5  A 4.5 4.5 0 0 1 75.5 336 L 75.5 345  A 4.5 4.5 0 0 1 71 349.5 L 62 349.5  A 4.5 4.5 0 0 1 57.5 345 L 57.5 336  Z " fill-rule="nonzero" fill="#ffffff" stroke="none" />
  <path d="M 57.5 336  A 4.5 4.5 0 0 1 62 331.5 L 71 331.5  A 4.5 4.5 0 0 1 75.5 336 L 75.5 345  A 4.5 4.5 0 0 1 71 349.5 L 62 349.5  A 4.5 4.5 0 0 1 57.5 345 L 57.5 336  Z " stroke-width="1" stroke="#0ebcc1" fill="none" />
  <path d="M 61.0714285714286 340.5  L 65.1428571428571 344.571428571429  L 71.9285714285714 335.071428571429  " stroke-width="4.07142857142857" stroke="#0ebcc1" fill="none" />
</svg>