<?xml version="1.0" encoding="utf-8"?>
<svg version="1.1" xmlns:xlink="http://www.w3.org/1999/xlink" width="16px" height="16px" viewBox="41 231  16 16" xmlns="http://www.w3.org/2000/svg">
  <path d="M 49 231  C 53.48 231  57 234.52  57 239  C 57 243.48  53.48 247  49 247  C 44.52 247  41 243.48  41 239  C 41 234.52  44.52 231  49 231  Z " fill-rule="nonzero" fill="#ffffff" stroke="none" />
  <path d="M 49 231.5  C 53.2 231.5  56.5 234.8  56.5 239  C 56.5 243.2  53.2 246.5  49 246.5  C 44.8 246.5  41.5 243.2  41.5 239  C 41.5 234.8  44.8 231.5  49 231.5  Z " stroke-width="1" stroke="#85a2a8" fill="none" />
  <path d="M 49 243  C 46.76 243  45 241.24  45 239  C 45 236.76  46.76 235  49 235  C 51.24 235  53 236.76  53 239  C 53 241.24  51.24 243  49 243  " fill-rule="nonzero" fill="#85a2a8" stroke="none" />
</svg>