<?xml version="1.0" encoding="utf-8"?>
<svg version="1.1" xmlns:xlink="http://www.w3.org/1999/xlink" width="16px" height="16px" viewBox="41 200  16 16" xmlns="http://www.w3.org/2000/svg">
  <path d="M 49 200  C 53.48 200  57 203.52  57 208  C 57 212.48  53.48 216  49 216  C 44.52 216  41 212.48  41 208  C 41 203.52  44.52 200  49 200  Z " fill-rule="nonzero" fill="#ffffff" stroke="none" />
  <path d="M 49 200.5  C 53.2 200.5  56.5 203.8  56.5 208  C 56.5 212.2  53.2 215.5  49 215.5  C 44.8 215.5  41.5 212.2  41.5 208  C 41.5 203.8  44.8 200.5  49 200.5  Z " stroke-width="1" stroke="#85a2a8" fill="none" />
  <path d="M 49 212  C 46.76 212  45 210.24  45 208  C 45 205.76  46.76 204  49 204  C 51.24 204  53 205.76  53 208  C 53 210.24  51.24 212  49 212  " fill-rule="nonzero" fill="#85a2a8" stroke="none" />
</svg>