<?xml version="1.0" encoding="utf-8"?>
<svg version="1.1" xmlns:xlink="http://www.w3.org/1999/xlink" width="16px" height="16px" viewBox="36 175  16 16" xmlns="http://www.w3.org/2000/svg">
  <path d="M 36.5 183  A 7.5 7.5 0 0 1 44 175.5 A 7.5 7.5 0 0 1 51.5 183 A 7.5 7.5 0 0 1 44 190.5 A 7.5 7.5 0 0 1 36.5 183 Z " fill-rule="nonzero" fill="#ffffff" stroke="none" />
  <path d="M 36.5 183  A 7.5 7.5 0 0 1 44 175.5 A 7.5 7.5 0 0 1 51.5 183 A 7.5 7.5 0 0 1 44 190.5 A 7.5 7.5 0 0 1 36.5 183 Z " stroke-width="1" stroke="#85a2a8" fill="none" />
  <path d="M 39.4285714285714 183  L 42.8571428571429 186.428571428571  L 48.5714285714286 178.428571428571  " stroke-width="3.42857142857143" stroke="#85a2a8" fill="none" />
</svg>